HIERARCHY
ROOT Hips
{
	OFFSET 51.082600 -22.041416 95.623100
	CHANNELS 6 Xposition Yposition Zposition Xrotation Yrotation Zrotation
	JOINT spine
	{
		OFFSET 0.000000 -0.458069 7.965683
		CHANNELS 3 Xrotation Yrotation Zrotation
		JOINT spine1
		{
			OFFSET 0.000000 -0.000002 10.243103
			CHANNELS 3 Xrotation Yrotation Zrotation
			JOINT spine2
			{
				OFFSET 0.000000 -0.000002 9.814751
				CHANNELS 3 Xrotation Yrotation Zrotation
				JOINT Neck
				{
					OFFSET 0.000000 -1.201384 25.198608
					CHANNELS 3 Xrotation Yrotation Zrotation
					JOINT Head
					{
						OFFSET 0.000000 0.000000 7.613144
						CHANNELS 3 Xrotation Yrotation Zrotation
						End Site
						{
							OFFSET 0.000000 6.077326 18.428101
						}
					}
				}
				JOINT RightShoulder
				{
					OFFSET -4.132702 0.575451 10.599197
					CHANNELS 3 Xrotation Yrotation Zrotation
					JOINT RightArm
					{
						OFFSET 0.000000 -0.000004 13.901794
						CHANNELS 3 Xrotation Yrotation Zrotation
						JOINT RightArmRoll
						{
							OFFSET 0.000000 0.000000 7.017883
							CHANNELS 3 Xrotation Yrotation Zrotation
							JOINT RightForeArm
							{
								OFFSET 0.000000 -0.000004 20.440598
								CHANNELS 3 Xrotation Yrotation Zrotation
								JOINT RightForeArmRoll
								{
									OFFSET 0.000000 -0.000002 7.875153
									CHANNELS 3 Xrotation Yrotation Zrotation
									JOINT RightHand
									{
										OFFSET 0.000000 -0.000002 15.803696
										CHANNELS 3 Xrotation Yrotation Zrotation
										End Site
										{
											OFFSET 0.000000 0.000000 0.100006
										}
									}
								}
							}
						}
					}
				}
				JOINT LeftShoulder
				{
					OFFSET 4.132702 0.575451 10.599197
					CHANNELS 3 Xrotation Yrotation Zrotation
					JOINT LeftArm
					{
						OFFSET 0.000000 -0.000004 13.901794
						CHANNELS 3 Xrotation Yrotation Zrotation
						JOINT LeftArmRoll
						{
							OFFSET 0.000000 0.000000 7.017883
							CHANNELS 3 Xrotation Yrotation Zrotation
							JOINT LeftForeArm
							{
								OFFSET 0.000000 -0.000004 20.440598
								CHANNELS 3 Xrotation Yrotation Zrotation
								JOINT LeftForeArmRoll
								{
									OFFSET 0.000000 -0.000002 7.875153
									CHANNELS 3 Xrotation Yrotation Zrotation
									JOINT LeftHand
									{
										OFFSET 0.000000 -0.000002 15.803696
										CHANNELS 3 Xrotation Yrotation Zrotation
										End Site
										{
											OFFSET 0.000000 0.000000 0.100006
										}
									}
								}
							}
						}
					}
				}
			}
		}
	}
	JOINT RightUpLeg
	{
		OFFSET -7.060482 1.086090 -1.294701
		CHANNELS 3 Xrotation Yrotation Zrotation
		JOINT RightUpLegRoll
		{
			OFFSET 0.000000 -0.000004 18.530800
			CHANNELS 3 Xrotation Yrotation Zrotation
			JOINT RightLeg
			{
				OFFSET 0.000000 0.000004 -22.947601
				CHANNELS 3 Xrotation Yrotation Zrotation
				JOINT RightLegRoll
				{
					OFFSET 0.000000 -0.000004 23.022598
					CHANNELS 3 Xrotation Yrotation Zrotation
					JOINT RightFoot
					{
						OFFSET 0.000000 -0.000002 19.162498
						CHANNELS 3 Xrotation Yrotation Zrotation
						JOINT RightToeBase
						{
							OFFSET 0.000000 -0.000004 16.018799
							CHANNELS 3 Xrotation Yrotation Zrotation
							End Site
							{
								OFFSET 0.006790 0.894205 7.757828
							}
						}
					}
				}
			}
		}
	}
	JOINT LeftUpLeg
	{
		OFFSET 7.060482 1.086090 -1.294701
		CHANNELS 3 Xrotation Yrotation Zrotation
		JOINT LeftUpLegRoll
		{
			OFFSET 0.000000 -0.000004 18.530899
			CHANNELS 3 Xrotation Yrotation Zrotation
			JOINT LeftLeg
			{
				OFFSET 0.000000 -0.000004 22.947495
				CHANNELS 3 Xrotation Yrotation Zrotation
				JOINT LeftLegRoll
				{
					OFFSET 0.000000 -0.000004 23.235504
					CHANNELS 3 Xrotation Yrotation Zrotation
					JOINT LeftFoot
					{
						OFFSET 0.000000 -0.000002 18.949600
						CHANNELS 3 Xrotation Yrotation Zrotation
						JOINT LeftToeBase
						{
							OFFSET 0.000000 -0.000004 16.018799
							CHANNELS 3 Xrotation Yrotation Zrotation
							End Site
							{
								OFFSET -0.030430 0.894207 7.757828
							}
						}
					}
				}
			}
		}
	}
}
MOTION
Frames: 9
Frame Time: 0.041667
47.848396 -26.085211 123.494011 4.467242 3.037861 2.323025 -0.900694 -0.551106 -0.088353 2.200648 -1.101577 -0.179919 3.845844 -1.103649 -0.166710 5.706067 -12.518343 -1.643086 -4.731402 10.094197 -0.933049 -17.104269 -58.202876 -20.205781 -309.161765 -98.804424 -283.496673 0.000002 0.000001 0.000002 2.960783 -10.469317 0.088487 -0.000004 0.000007 -3.004007 -5.000207 -7.999283 0.000104 2.177336 51.230196 -3.628483 -303.677369 108.044495 288.389930 -0.000002 0.000002 0.000002 17.093991 17.243381 -2.931188 -0.000002 -0.000007 3.006880 -5.000195 7.999082 -0.000104 -10.433384 -173.865334 -0.792107 -179.999991 0.000004 -0.996000 167.732972 -4.272551 -1.085044 -0.000008 -0.000004 0.161796 68.433803 6.914827 2.120204 25.456953 -7.355615 0.000003 -15.058740 168.773565 -1.934110 -0.000004 -0.000005 -1.038070 -22.701566 2.991928 1.176223 -0.000006 0.000000 -0.362608 70.450819 -6.921057 -1.950824 25.456957 7.355611 -0.000002 
47.871502 -26.033619 123.242996 4.507103 3.017198 2.298966 -0.900730 -0.553631 -0.086971 2.200571 -1.106633 -0.177166 3.845781 -1.108678 -0.163896 5.716532 -12.357548 -1.640147 -4.753255 9.993114 -0.940158 -17.092492 -58.155393 -20.191386 -309.296756 -98.968232 -283.719091 -0.000001 0.000002 0.000001 3.210167 -10.533117 0.110435 -0.000005 0.000007 -3.004008 -5.000209 -7.999281 0.000100 2.183302 51.324497 -3.621484 -303.495358 108.287520 288.499049 0.000000 0.000002 0.000001 17.641877 17.385879 -3.039590 -0.000002 -0.000007 3.006870 -5.000195 7.999085 -0.000104 -10.483422 -173.827946 -0.817252 -179.999991 0.000004 -0.995003 167.801369 -4.235525 -1.077740 -0.000007 -0.000003 0.160197 68.434616 6.915064 2.119898 25.456950 -7.355615 0.000002 -15.076895 168.802566 -1.901145 -0.000003 -0.000004 -1.038450 -22.581210 2.984182 1.168622 -0.000006 0.000000 -0.360797 70.441851 -6.921279 -1.951419 25.456953 7.355613 -0.000002 
47.885208 -26.050816 123.024994 4.547449 2.996375 2.275563 -0.900723 -0.555797 -0.085443 2.200605 -1.110980 -0.174121 3.845807 -1.112979 -0.160800 5.722957 -12.201721 -1.638370 -4.770607 9.895604 -0.948041 -17.090183 -58.111386 -20.188239 -309.423088 -99.128086 -283.935526 -0.000001 0.000000 -0.000001 3.465490 -10.597528 0.133171 -0.000005 0.000003 -3.004011 -5.000207 -7.999281 0.000097 2.184357 51.413795 -3.609224 -303.341514 108.526331 288.633522 0.000001 0.000001 -0.000001 18.185701 17.519217 -3.147717 -0.000001 -0.000005 3.006870 -5.000195 7.999081 -0.000105 -10.533974 -173.790598 -0.841377 -179.999991 0.000005 -0.994007 167.869207 -4.201402 -1.071183 -0.000008 -0.000004 0.158648 68.435354 6.915406 2.119517 25.456953 -7.355616 0.000002 -15.096777 168.831662 -1.867924 -0.000003 -0.000005 -1.038760 -22.462344 2.975918 1.161029 -0.000005 0.000000 -0.359023 70.433136 -6.921601 -1.951719 25.456955 7.355613 -0.000003 
47.890999 -26.057816 122.771004 4.588211 2.975302 2.253148 -0.900610 -0.557557 -0.083748 2.200846 -1.114507 -0.170736 3.846050 -1.116470 -0.157372 5.723794 -12.052785 -1.637971 -4.782026 9.803403 -0.956811 -17.099712 -58.071177 -20.199163 -309.543927 -99.282865 -284.148410 0.000001 0.000001 0.000002 3.725574 -10.661741 0.156537 -0.000003 0.000002 -3.004011 -5.000209 -7.999284 0.000099 2.180082 51.497591 -3.591335 -303.223817 108.761699 288.800725 -0.000001 0.000000 -0.000000 18.723155 17.642541 -3.254919 -0.000002 -0.000006 3.006870 -5.000195 7.999083 -0.000104 -10.585139 -173.753278 -0.864055 -179.999991 0.000005 -0.992995 167.936211 -4.168219 -1.064975 -0.000009 -0.000004 0.157159 68.436289 6.915724 2.119019 25.456947 -7.355615 0.000002 -15.118646 168.859885 -1.833984 -0.000005 -0.000005 -1.039000 -22.345273 2.967067 1.153449 -0.000004 0.000000 -0.357294 70.424824 -6.921860 -1.952081 25.456955 7.355612 -0.000002 
47.901005 -26.051016 122.516991 4.629296 2.953880 2.232033 -0.900346 -0.558858 -0.081859 2.201388 -1.117115 -0.166963 3.846593 -1.119044 -0.153567 5.717464 -11.912260 -1.639203 -4.786121 9.718324 -0.966620 -17.123373 -58.035031 -20.226850 -309.661051 -99.431264 -284.358916 0.000001 0.000001 0.000003 3.989246 -10.724861 0.180329 -0.000005 0.000004 -3.004010 -5.000208 -7.999283 0.000100 2.170055 51.575189 -3.567411 -303.140188 108.992190 288.997052 -0.000000 0.000000 -0.000000 19.251826 17.755137 -3.360544 -0.000002 -0.000004 3.006860 -5.000195 7.999083 -0.000104 -10.636865 -173.714004 -0.885213 -179.999991 0.000004 -0.991998 168.002272 -4.136949 -1.058329 -0.000008 -0.000003 0.155744 68.437355 6.916085 2.118322 25.456955 -7.355615 0.000003 -15.142553 168.888216 -1.799393 -0.000004 -0.000005 -1.039131 -22.230490 2.957564 1.145905 -0.000005 0.000000 -0.355626 70.416942 -6.922153 -1.952322 25.456950 7.355614 -0.000003 
47.925503 -26.042118 122.264984 4.670661 2.932028 2.212541 -0.899870 -0.559649 -0.079753 2.202360 -1.118713 -0.162750 3.847567 -1.120580 -0.149337 5.702437 -11.782056 -1.642244 -4.781431 9.642183 -0.977573 -17.163480 -58.003230 -20.274069 -309.776864 -99.572069 -284.568849 0.000002 -0.000000 0.000001 4.255305 -10.786088 0.204352 -0.000003 0.000003 -3.004008 -5.000208 -7.999285 0.000099 2.153883 51.645895 -3.537094 -303.091038 109.216938 289.221956 0.000003 0.000001 0.000001 19.769253 17.856061 -3.463768 -0.000001 -0.000005 3.006861 -5.000195 7.999084 -0.000103 -10.689224 -173.673788 -0.904242 -179.999991 0.000005 -0.991001 168.067091 -4.108580 -1.052467 -0.000008 -0.000003 0.154414 68.438625 6.916463 2.117616 25.456952 -7.355616 0.000003 -15.168696 168.916657 -1.763952 -0.000005 -0.000004 -1.039131 -22.118302 2.947316 1.138392 -0.000006 0.000000 -0.354026 70.409394 -6.922452 -1.952544 25.456953 7.355613 -0.000001 
47.930702 -26.042213 122.014992 4.712219 2.909639 2.194994 -0.899131 -0.559878 -0.077407 2.203861 -1.119192 -0.158050 3.849067 -1.121006 -0.144630 5.677144 -11.663993 -1.647314 -4.766550 9.576774 -0.989799 -17.222372 -57.976053 -20.343599 -309.893059 -99.703987 -284.779000 -0.000001 0.000002 0.000001 4.522587 -10.844441 0.228359 -0.000004 0.000004 -3.004007 -5.000207 -7.999283 0.000103 2.131150 51.708920 -3.499980 -303.081612 109.436201 289.479564 0.000000 -0.000000 0.000002 20.273081 17.944683 -3.563896 -0.000001 -0.000007 3.006862 -5.000195 7.999084 -0.000104 -10.742220 -173.632616 -0.920713 -179.999991 0.000006 -0.990004 168.130516 -4.084077 -1.047585 -0.000009 -0.000003 0.153182 68.440121 6.916854 2.116596 25.456950 -7.355615 0.000001 -15.197229 168.946177 -1.727729 -0.000004 -0.000004 -1.039000 -22.009105 2.936261 1.130930 -0.000006 0.000000 -0.352507 70.402250 -6.922722 -1.952835 25.456955 7.355613 -0.000003 
47.958000 -26.051113 121.748993 4.753894 2.886633 2.179714 -0.898073 -0.559496 -0.074797 2.205990 -1.118441 -0.152816 3.851197 -1.120195 -0.139405 5.640025 -11.559591 -1.654635 -4.740058 9.523886 -1.003420 -17.302355 -57.953738 -20.438180 -310.012615 -99.825878 -284.991692 0.000000 0.000003 0.000001 4.789883 -10.899324 0.252120 -0.000003 0.000005 -3.004015 -5.000206 -7.999280 0.000096 2.101438 51.763661 -3.455701 -303.107621 109.648066 289.764055 -0.000003 -0.000000 -0.000002 20.760836 18.020155 -3.660079 -0.000001 -0.000007 3.006850 -5.000194 7.999081 -0.000104 -10.795654 -173.590487 -0.934168 -179.999991 0.000005 -0.990004 168.192193 -4.062486 -1.042501 -0.000008 -0.000004 0.152058 68.441829 6.917302 2.115473 25.456950 -7.355617 0.000002 -15.228200 168.975820 -1.690297 -0.000004 -0.000005 -1.038700 -21.903399 2.924324 1.123535 -0.000006 0.000000 -0.351079 70.395427 -6.922994 -1.953108 25.456950 7.355613 -0.000002 
47.966301 -26.045416 121.484993 4.795212 2.863290 2.166295 -0.896531 -0.558431 -0.071713 2.209119 -1.116360 -0.146624 3.854323 -1.118036 -0.133239 5.589506 -11.470165 -1.664594 -4.699052 9.484177 -1.018839 -17.406133 -57.937421 -20.561093 -310.125695 -99.937661 -285.198838 0.000002 0.000003 0.000004 5.060403 -10.952690 0.276104 -0.000004 0.000004 -3.003998 -5.000208 -7.999283 0.000099 2.063212 51.805445 -3.402961 -303.191414 109.856257 290.097914 0.000000 -0.000000 0.000001 21.225436 18.083146 -3.750300 -0.000001 -0.000006 3.006850 -5.000195 7.999082 -0.000104 -10.847436 -173.546391 -0.945839 -179.999991 0.000005 -0.989006 168.255864 -4.042850 -1.036731 -0.000008 -0.000004 0.150995 68.443461 6.917810 2.114169 25.456947 -7.355615 0.000002 -15.260292 169.005518 -1.651574 -0.000004 -0.000005 -1.038240 -21.799566 2.910990 1.116025 -0.000004 0.000001 -0.349728 70.389560 -6.923243 -1.953218 25.456952 7.355614 -0.000003 
